<svg width="50" height="50" viewBox="0 0 50 50" fill="none" xmlns="http://www.w3.org/2000/svg">
<g clip-path="url(#clip0_6957_711)">
<path d="M24.9999 49.4949C38.5281 49.4949 49.4949 38.5281 49.4949 24.9999C49.4949 11.4717 38.5281 0.504883 24.9999 0.504883C11.4717 0.504883 0.504883 11.4717 0.504883 24.9999C0.504883 38.5281 11.4717 49.4949 24.9999 49.4949Z" fill="#E30A17"/>
<path d="M15.7361 25C15.7361 18.758 20.7961 13.7 27.0351 13.7C28.9391 13.7 30.7341 14.172 32.3061 15.004C29.7541 12.453 26.2221 10.874 22.3301 10.874C14.5301 10.874 8.20605 17.198 8.20605 25C8.20605 32.802 14.5301 39.126 22.3301 39.126C26.2291 39.126 29.7541 37.547 32.3061 34.999C30.7341 35.831 28.9391 36.3 27.0351 36.3C20.7961 36.3 15.7361 31.24 15.7361 25Z" fill="white"/>
<path d="M32.6289 25.0332L37.1679 23.3352L37.3779 18.4932L40.3969 22.2862L45.0649 20.9912L42.3909 25.0332L45.0649 29.0742L40.3969 27.7792L37.3779 31.5722L37.1679 26.7282L32.6289 25.0332Z" fill="white"/>
<mask id="mask0_6957_711" style="mask-type:luminance" maskUnits="userSpaceOnUse" x="0" y="0" width="50" height="50">
<path d="M25 49.5C38.531 49.5 49.5 38.531 49.5 25C49.5 11.469 38.531 0.5 25 0.5C11.469 0.5 0.5 11.469 0.5 25C0.5 38.531 11.469 49.5 25 49.5Z" fill="white"/>
</mask>
<g mask="url(#mask0_6957_711)">
<path opacity="0.4" d="M24.9998 52.4693C40.1705 52.4693 52.4688 40.171 52.4688 25.0002C52.4688 9.82954 40.1705 -2.46875 24.9998 -2.46875C9.82905 -2.46875 -2.46924 9.82954 -2.46924 25.0002C-2.46924 40.171 9.82905 52.4693 24.9998 52.4693Z" fill="url(#paint0_radial_6957_711)"/>
</g>
<mask id="mask1_6957_711" style="mask-type:luminance" maskUnits="userSpaceOnUse" x="0" y="0" width="50" height="50">
<path d="M25 49.5C38.531 49.5 49.5 38.531 49.5 25C49.5 11.469 38.531 0.5 25 0.5C11.469 0.5 0.5 11.469 0.5 25C0.5 38.531 11.469 49.5 25 49.5Z" fill="white"/>
</mask>
<g mask="url(#mask1_6957_711)">
<path opacity="0.6" d="M24.9998 56.6783C42.4951 56.6783 56.6778 42.4955 56.6778 25.0003C56.6778 7.50499 42.4951 -6.67773 24.9998 -6.67773C7.5045 -6.67773 -6.67822 7.50499 -6.67822 25.0003C-6.67822 42.4955 7.5045 56.6783 24.9998 56.6783Z" fill="url(#paint1_radial_6957_711)"/>
</g>
<path d="M25.306 32.002C34.8638 32.002 42.612 25.7335 42.612 18.001C42.612 10.2685 34.8638 4 25.306 4C15.7482 4 8 10.2685 8 18.001C8 25.7335 15.7482 32.002 25.306 32.002Z" fill="url(#paint2_linear_6957_711)"/>
</g>
<defs>
<radialGradient id="paint0_radial_6957_711" cx="0" cy="0" r="1" gradientUnits="userSpaceOnUse" gradientTransform="translate(24.9998 25.0003) scale(27.4688)">
<stop stop-opacity="0"/>
<stop offset="0.7576" stop-opacity="0"/>
<stop offset="1"/>
</radialGradient>
<radialGradient id="paint1_radial_6957_711" cx="0" cy="0" r="1" gradientUnits="userSpaceOnUse" gradientTransform="translate(24.9998 25.0003) scale(31.6777)">
<stop stop-opacity="0"/>
<stop offset="0.5758" stop-opacity="0"/>
<stop offset="1"/>
</radialGradient>
<linearGradient id="paint2_linear_6957_711" x1="25.3056" y1="32.0021" x2="25.3056" y2="4.0002" gradientUnits="userSpaceOnUse">
<stop offset="0.0727" stop-color="white" stop-opacity="0.05"/>
<stop offset="0.897" stop-color="white" stop-opacity="0.75"/>
<stop offset="1" stop-color="white" stop-opacity="0.75"/>
</linearGradient>
<clipPath id="clip0_6957_711">
<rect width="50" height="50" fill="white"/>
</clipPath>
</defs>
</svg>
