<svg width="180" height="24" viewBox="0 0 180 24" fill="none" xmlns="http://www.w3.org/2000/svg">
<mask id="mask0_6969_489" style="mask-type:alpha" maskUnits="userSpaceOnUse" x="0" y="0" width="24" height="24">
<rect width="24" height="24" fill="#D9D9D9"/>
</mask>
<g mask="url(#mask0_6969_489)">
<path d="M12 22C10.6167 22 9.31667 21.7375 8.1 21.2125C6.88333 20.6875 5.825 19.975 4.925 19.075C4.025 18.175 3.3125 17.1167 2.7875 15.9C2.2625 14.6833 2 13.3833 2 12C2 10.6167 2.2625 9.31667 2.7875 8.1C3.3125 6.88333 4.025 5.825 4.925 4.925C5.825 4.025 6.88333 3.3125 8.1 2.7875C9.31667 2.2625 10.6167 2 12 2C13.3833 2 14.6833 2.2625 15.9 2.7875C17.1167 3.3125 18.175 4.025 19.075 4.925C19.975 5.825 20.6875 6.88333 21.2125 8.1C21.7375 9.31667 22 10.6167 22 12C22 13.3833 21.7375 14.6833 21.2125 15.9C20.6875 17.1167 19.975 18.175 19.075 19.075C18.175 19.975 17.1167 20.6875 15.9 21.2125C14.6833 21.7375 13.3833 22 12 22ZM12 20C14.2333 20 16.125 19.225 17.675 17.675C19.225 16.125 20 14.2333 20 12C20 9.76667 19.225 7.875 17.675 6.325C16.125 4.775 14.2333 4 12 4C9.76667 4 7.875 4.775 6.325 6.325C4.775 7.875 4 9.76667 4 12C4 14.2333 4.775 16.125 6.325 17.675C7.875 19.225 9.76667 20 12 20ZM10 16H14C14.2833 16 14.5208 15.9042 14.7125 15.7125C14.9042 15.5208 15 15.2833 15 15V14C15 13.7167 14.9042 13.4792 14.7125 13.2875C14.5208 13.0958 14.2833 13 14 13C13.7167 13 13.4792 13.0958 13.2875 13.2875C13.0958 13.4792 13 13.7167 13 14H11V10H13C13 10.2833 13.0958 10.5208 13.2875 10.7125C13.4792 10.9042 13.7167 11 14 11C14.2833 11 14.5208 10.9042 14.7125 10.7125C14.9042 10.5208 15 10.2833 15 10V9C15 8.71667 14.9042 8.47917 14.7125 8.2875C14.5208 8.09583 14.2833 8 14 8H10C9.71667 8 9.47917 8.09583 9.2875 8.2875C9.09583 8.47917 9 8.71667 9 9V15C9 15.2833 9.09583 15.5208 9.2875 15.7125C9.47917 15.9042 9.71667 16 10 16Z" fill="white"/>
</g>
<path d="M37.378 7.894H33.436V19H31.996V7.894H28.162V6.76H37.216L37.378 7.894ZM38.9665 19V10.27H39.8305L40.2625 11.494C40.5865 11.218 41.0005 10.948 41.5045 10.684C42.0205 10.408 42.5125 10.27 42.9805 10.27C43.0285 10.462 43.0825 10.654 43.1425 10.846C43.2025 11.026 43.2625 11.212 43.3225 11.404C42.8065 11.404 42.2845 11.548 41.7565 11.836C41.2285 12.112 40.7725 12.442 40.3885 12.826V19H38.9665ZM45.7359 16.516C45.7359 16.888 45.8619 17.242 46.1139 17.578C46.3779 17.914 46.7979 18.082 47.3739 18.082C47.8779 18.082 48.3399 17.956 48.7599 17.704C49.1799 17.452 49.5399 17.152 49.8399 16.804V14.806H47.5359C46.9479 14.806 46.4979 14.98 46.1859 15.328C45.8859 15.664 45.7359 16.06 45.7359 16.516ZM44.9799 10.81C45.3159 10.582 45.7899 10.396 46.4019 10.252C47.0139 10.108 47.4999 10.036 47.8599 10.036C48.8679 10.036 49.6839 10.312 50.3079 10.864C50.9439 11.404 51.2619 12.112 51.2619 12.988V19H50.3979L50.0199 18.118C49.7199 18.394 49.3299 18.646 48.8499 18.874C48.3699 19.102 47.8899 19.216 47.4099 19.216C46.4019 19.216 45.6519 18.964 45.1599 18.46C44.6679 17.944 44.4219 17.296 44.4219 16.516C44.4219 15.652 44.7099 14.998 45.2859 14.554C45.8739 14.098 46.6359 13.87 47.5719 13.87H49.8219C49.8219 13.15 49.7079 12.538 49.4799 12.034C49.2519 11.53 48.7299 11.278 47.9139 11.278C47.3259 11.278 46.8399 11.344 46.4559 11.476C46.0719 11.608 45.7179 11.746 45.3939 11.89C45.3339 11.71 45.2679 11.53 45.1959 11.35C45.1239 11.17 45.0519 10.99 44.9799 10.81ZM56.2102 19L52.8802 10.486L54.3202 10.27L56.9302 17.074L59.4322 10.27H60.8542L57.6142 19H56.2102ZM69.8463 14.86H63.5103C63.5463 15.784 63.7923 16.552 64.2483 17.164C64.7043 17.764 65.4243 18.064 66.4083 18.064C66.9963 18.064 67.4703 18.004 67.8303 17.884C68.2023 17.752 68.5563 17.608 68.8923 17.452L69.3423 18.496C68.9703 18.748 68.4843 18.928 67.8843 19.036C67.2843 19.156 66.8043 19.216 66.4443 19.216C64.9923 19.216 63.8943 18.79 63.1503 17.938C62.4063 17.074 62.0343 15.964 62.0343 14.608C62.0463 13.288 62.4003 12.196 63.0963 11.332C63.8043 10.468 64.8063 10.036 66.1023 10.036C67.4583 10.036 68.4183 10.516 68.9823 11.476C69.5583 12.424 69.8463 13.552 69.8463 14.86ZM68.4423 13.888C68.3463 13.108 68.1123 12.472 67.7403 11.98C67.3683 11.488 66.8043 11.242 66.0483 11.242C65.2923 11.242 64.7043 11.488 64.2843 11.98C63.8763 12.472 63.6303 13.108 63.5463 13.888H68.4423ZM72.1021 19V6.49L73.5241 6.292V19H72.1021ZM83.6867 8.12C84.8067 8.12 85.724 8.328 86.4387 8.744C87.1533 9.16 87.5107 9.912 87.5107 11C87.5107 11.512 87.388 11.9493 87.1427 12.312C86.8973 12.6747 86.572 12.9627 86.1667 13.176C86.7853 13.3893 87.2867 13.72 87.6707 14.168C88.0653 14.616 88.2627 15.208 88.2627 15.944C88.2627 17.0533 87.8733 17.8427 87.0947 18.312C86.316 18.7707 85.3613 19 84.2307 19H80.8227V8.12H83.6867ZM83.6227 9.192H82.0707V12.856H83.5587C84.3267 12.8453 84.9613 12.712 85.4627 12.456C85.964 12.2 86.2147 11.7253 86.2147 11.032C86.2147 10.2747 85.98 9.77867 85.5107 9.544C85.0413 9.30933 84.412 9.192 83.6227 9.192ZM84.3747 13.88H82.0707V17.944H84.2147C84.9827 17.944 85.6333 17.8053 86.1667 17.528C86.7 17.24 86.9667 16.7227 86.9667 15.976C86.9667 15.24 86.732 14.7067 86.2627 14.376C85.7933 14.0453 85.164 13.88 84.3747 13.88ZM90.362 19V7.88L91.626 7.704V19H90.362ZM97.1342 19.208C95.9928 19.1973 95.1342 18.808 94.5582 18.04C93.9822 17.272 93.6942 16.2853 93.6942 15.08C93.7048 13.9067 94.0195 12.9413 94.6382 12.184C95.2568 11.4267 96.1422 11.0427 97.2942 11.032C98.4675 11.032 99.3422 11.4213 99.9182 12.2C100.505 12.9787 100.798 13.9707 100.798 15.176C100.787 16.36 100.462 17.3307 99.8222 18.088C99.1822 18.8347 98.2862 19.208 97.1342 19.208ZM99.5342 15.176C99.5342 14.2907 99.3635 13.56 99.0222 12.984C98.6915 12.408 98.1262 12.12 97.3262 12.12C96.5368 12.12 95.9502 12.3973 95.5662 12.952C95.1928 13.496 95.0008 14.2 94.9902 15.064C94.9902 15.9707 95.1502 16.7067 95.4702 17.272C95.7902 17.8373 96.3502 18.12 97.1502 18.12C97.9502 18.12 98.5422 17.8533 98.9262 17.32C99.3208 16.7867 99.5235 16.072 99.5342 15.176ZM107.902 12.936C107.603 12.6693 107.278 12.4613 106.926 12.312C106.584 12.1627 106.264 12.088 105.966 12.088C105.134 12.088 104.542 12.3867 104.19 12.984C103.848 13.5707 103.678 14.28 103.678 15.112C103.678 15.976 103.843 16.696 104.174 17.272C104.515 17.848 105.112 18.136 105.966 18.136C106.264 18.136 106.584 18.0613 106.926 17.912C107.278 17.7627 107.603 17.5547 107.902 17.288V12.936ZM109.182 19.624C109.182 20.4347 108.899 21.112 108.334 21.656C107.779 22.2 106.947 22.472 105.838 22.472C105.518 22.472 105.086 22.408 104.542 22.28C103.998 22.1627 103.56 21.9867 103.23 21.752L103.614 20.84C103.934 20.9787 104.248 21.112 104.558 21.24C104.878 21.368 105.294 21.432 105.806 21.432C106.446 21.432 106.952 21.2773 107.326 20.968C107.71 20.6693 107.902 20.216 107.902 19.608V18.424C107.592 18.6587 107.24 18.8453 106.846 18.984C106.462 19.1227 106.099 19.192 105.758 19.192C104.627 19.192 103.779 18.8133 103.214 18.056C102.659 17.288 102.382 16.312 102.382 15.128C102.382 13.944 102.664 12.9627 103.23 12.184C103.806 11.4053 104.659 11.016 105.79 11.016C106.163 11.016 106.558 11.1067 106.974 11.288C107.39 11.4587 107.763 11.6773 108.094 11.944C108.147 11.8373 108.2 11.7253 108.254 11.608C108.307 11.48 108.36 11.3573 108.414 11.24H109.182V19.624ZM118.797 8.578C120.105 8.578 121.017 8.914 121.533 9.586C122.061 10.258 122.325 10.948 122.325 11.656C122.325 12.34 122.103 12.976 121.659 13.564C121.215 14.14 120.561 14.806 119.697 15.562L117.051 17.884H122.505L122.685 19H115.269V17.938L118.923 14.626C119.679 13.942 120.201 13.396 120.489 12.988C120.777 12.568 120.921 12.124 120.921 11.656C120.921 11.104 120.741 10.648 120.381 10.288C120.021 9.928 119.481 9.748 118.761 9.748C118.197 9.748 117.657 9.892 117.141 10.18C116.637 10.468 116.379 10.618 116.367 10.63L115.737 9.604C115.833 9.544 116.157 9.358 116.709 9.046C117.273 8.734 117.969 8.578 118.797 8.578ZM124.667 13.834C124.667 12.202 125.075 10.918 125.891 9.982C126.707 9.046 127.769 8.578 129.077 8.578C130.385 8.578 131.441 9.034 132.245 9.946C133.049 10.846 133.451 12.136 133.451 13.816C133.451 15.448 133.037 16.762 132.209 17.758C131.381 18.742 130.337 19.234 129.077 19.234C127.793 19.234 126.737 18.754 125.909 17.794C125.081 16.834 124.667 15.514 124.667 13.834ZM126.089 13.78C126.089 15.112 126.371 16.15 126.935 16.894C127.499 17.638 128.213 18.01 129.077 18.01C129.905 18.01 130.607 17.638 131.183 16.894C131.759 16.15 132.047 15.142 132.047 13.87C132.047 12.55 131.765 11.542 131.201 10.846C130.649 10.138 129.941 9.784 129.077 9.784C128.225 9.784 127.511 10.138 126.935 10.846C126.371 11.542 126.089 12.52 126.089 13.78ZM138.643 8.578C139.951 8.578 140.863 8.914 141.379 9.586C141.907 10.258 142.171 10.948 142.171 11.656C142.171 12.34 141.949 12.976 141.505 13.564C141.061 14.14 140.407 14.806 139.543 15.562L136.897 17.884H142.351L142.531 19H135.115V17.938L138.769 14.626C139.525 13.942 140.047 13.396 140.335 12.988C140.623 12.568 140.767 12.124 140.767 11.656C140.767 11.104 140.587 10.648 140.227 10.288C139.867 9.928 139.327 9.748 138.607 9.748C138.043 9.748 137.503 9.892 136.987 10.18C136.483 10.468 136.225 10.618 136.213 10.63L135.583 9.604C135.679 9.544 136.003 9.358 136.555 9.046C137.119 8.734 137.815 8.578 138.643 8.578ZM152.397 15.526C152.397 16.486 152.061 17.344 151.389 18.1C150.717 18.856 149.841 19.234 148.761 19.234C147.513 19.234 146.493 18.814 145.701 17.974C144.909 17.134 144.513 15.91 144.513 14.302C144.513 12.982 144.999 11.614 145.971 10.198C146.943 8.77 148.203 7.9 149.751 7.588L150.345 8.47C149.277 8.722 148.359 9.286 147.591 10.162C146.823 11.026 146.325 11.98 146.097 13.024C146.421 12.736 146.811 12.484 147.267 12.268C147.735 12.052 148.221 11.944 148.725 11.944C149.853 11.944 150.747 12.31 151.407 13.042C152.067 13.762 152.397 14.59 152.397 15.526ZM151.047 15.616C151.047 14.956 150.837 14.362 150.417 13.834C149.997 13.306 149.427 13.042 148.707 13.042C148.059 13.042 147.489 13.21 146.997 13.546C146.517 13.87 146.163 14.236 145.935 14.644C145.971 15.664 146.217 16.486 146.673 17.11C147.129 17.734 147.807 18.046 148.707 18.046C149.415 18.046 149.979 17.8 150.399 17.308C150.831 16.804 151.047 16.24 151.047 15.616Z" fill="white"/>
</svg>
